<?xml version="1.0" standalone="no"?>
<!DOCTYPE svg PUBLIC "-//W3C//DTD SVG 20010904//EN"
 "http://www.w3.org/TR/2001/REC-SVG-20010904/DTD/svg10.dtd">
<svg version="1.0" xmlns="http://www.w3.org/2000/svg"
 width="500.000000pt" height="500.000000pt" viewBox="0 0 500.000000 500.000000"
 preserveAspectRatio="xMidYMid meet">

<g transform="translate(0.000000,500.000000) scale(0.100000,-0.100000)"
fill="#000000" stroke="none">
<path d="M2944 4028 c-3 -9 5 -36 16 -59 23 -44 17 -64 -16 -57 -14 2 -19 12
-19 33 0 23 -5 30 -20 30 -15 0 -22 -9 -26 -35 -4 -19 -6 -36 -5 -37 6 -7 174
-6 194 1 12 4 22 16 22 27 0 26 -15 24 -27 -3 -9 -20 -12 -21 -18 -6 -3 9 3
34 14 56 30 59 22 70 -50 69 -46 -1 -60 -5 -65 -19z"/>
<path d="M2018 4003 c34 -2 88 -2 120 0 31 2 3 3 -63 3 -66 0 -92 -1 -57 -3z"/>
<path d="M2213 4003 c9 -2 17 -11 17 -19 0 -11 -24 -14 -127 -15 -71 -1 -134
-1 -140 0 -16 2 -16 2 -2 -38 6 -17 15 -31 20 -31 5 0 9 -9 9 -20 0 -19 -8
-20 -427 -22 -410 -3 -429 -2 -457 16 -16 11 -26 15 -22 8 4 -7 2 -12 -5 -12
-8 0 -7 -5 2 -17 13 -15 12 -15 -6 -5 -14 7 -26 7 -38 1 -14 -9 -17 -26 -17
-114 0 -90 2 -104 18 -108 9 -3 3 -6 -15 -7 -18 -1 -36 -3 -40 -4 -5 -1 -24
-5 -43 -10 -84 -18 -130 -28 -205 -47 -44 -11 -86 -21 -92 -21 -17 -2 -17 -12
9 -165 22 -131 22 -131 56 -147 18 -9 41 -16 52 -16 10 0 22 -5 25 -10 4 -6
11 -8 16 -5 19 12 8 -9 -27 -51 -40 -50 -59 -55 -71 -19 -8 24 -15 18 -127
-116 -84 -100 -115 -143 -106 -149 15 -9 5 -30 -15 -30 -7 0 -15 6 -17 12 -6
16 -58 -5 -58 -23 0 -7 -11 -27 -26 -46 -14 -18 -22 -38 -18 -45 4 -6 8 -24 9
-40 1 -22 -1 -25 -11 -17 -22 18 -41 4 -59 -45 -10 -25 -22 -46 -26 -46 -14 0
-10 -57 6 -96 8 -20 23 -38 34 -41 18 -4 18 -7 4 -32 -15 -25 -14 -30 5 -74
14 -31 30 -51 47 -57 32 -12 49 -53 33 -79 -20 -33 34 -131 73 -131 11 0 24
-11 31 -25 6 -14 15 -25 20 -25 5 0 7 -8 4 -18 -8 -23 39 -29 52 -6 7 13 15 6
40 -35 30 -47 34 -72 7 -34 -13 18 -35 10 -35 -13 0 -25 -15 -15 -38 24 -12
20 -22 31 -22 24 0 -7 -5 -10 -11 -6 -8 4 -7 0 1 -15 6 -12 15 -19 20 -16 6 3
7 -1 4 -9 -8 -20 31 -56 60 -56 15 0 30 -10 41 -26 9 -15 13 -24 8 -21 -14 9
-7 -51 8 -71 34 -45 64 -72 81 -72 19 0 34 -39 25 -64 -8 -22 49 -105 80 -117
44 -17 73 -49 67 -74 -4 -17 4 -30 37 -59 23 -20 51 -36 61 -36 16 0 18 -10
18 -93 l0 -93 53 -52 53 -52 443 0 443 0 65 -60 64 -60 382 0 383 0 59 60 59
60 455 0 455 0 48 51 48 51 0 103 c0 100 1 103 24 109 61 15 101 76 76 116 -7
11 -2 22 17 42 15 16 32 28 39 28 7 0 22 21 33 46 17 37 24 44 40 39 30 -9 57
10 86 60 18 29 24 51 20 65 -5 17 6 35 54 85 34 35 61 70 61 78 0 8 7 20 16
28 25 21 56 89 46 102 -15 21 -8 51 13 55 37 7 73 51 89 112 6 19 5 21 -3 10
-9 -13 -11 -13 -11 1 0 9 -7 22 -15 29 -8 7 -15 17 -15 22 0 6 5 6 14 -1 11
-9 21 2 50 59 20 38 52 89 70 114 63 81 72 124 36 167 l-19 24 -1 -27 c0 -27
-23 -58 -42 -58 -6 0 -4 8 5 18 32 35 16 119 -19 105 -16 -6 -54 53 -54 85 0
13 4 20 10 17 6 -3 10 -15 10 -25 0 -36 21 -68 41 -63 14 4 16 10 10 22 -5 9
-7 30 -4 46 7 46 -49 107 -99 107 -19 0 -41 4 -49 9 -11 7 -11 9 4 9 9 0 17 3
17 6 0 3 -29 39 -64 81 l-64 75 33 55 c30 51 40 59 105 86 70 29 71 30 64 61
-10 48 -64 100 -64 61 0 -22 -22 -18 -63 9 -44 30 -54 21 -56 -48 -2 -57 6
-89 20 -81 5 4 9 2 9 -3 0 -12 -98 -162 -105 -162 -3 0 10 24 28 53 19 29 39
64 46 77 10 21 9 22 -1 6 -7 -11 -33 -42 -58 -69 -43 -47 -44 -48 -53 -25 -6
16 -3 32 8 53 11 20 12 24 2 13 -8 -10 -20 -18 -28 -18 -10 0 -10 3 -1 12 7 7
12 16 12 21 0 5 -9 -1 -19 -14 -16 -20 -23 -22 -38 -13 -10 6 -20 24 -23 40
l-5 28 -18 -28 c-10 -15 -21 -25 -24 -22 -9 9 26 56 42 56 10 0 15 -10 15 -29
0 -17 5 -33 10 -36 16 -10 40 14 39 39 -1 20 -1 20 -7 -2 -4 -13 -11 -23 -17
-23 -16 0 -18 33 -3 42 10 7 9 9 -4 9 -38 0 -25 20 24 35 l53 17 21 147 c25
168 27 163 -64 180 -31 6 -77 15 -102 21 -65 15 -148 31 -200 40 -25 4 -37 8
-27 9 15 1 17 13 17 106 0 98 -1 105 -22 116 -13 7 -25 15 -28 18 -3 3 -14 13
-25 21 -11 8 -17 10 -13 6 4 -5 0 -15 -10 -22 -22 -17 -802 -20 -802 -3 0 5
-4 7 -10 4 -5 -3 -10 2 -10 12 0 14 -2 15 -9 4 -6 -9 -35 -14 -99 -15 -126 -3
-129 -16 -4 -16 84 0 102 -3 102 -15 0 -9 -10 -15 -27 -16 -16 0 -58 -3 -95
-5 -57 -4 -67 -2 -71 13 -3 13 -5 11 -7 -7 -1 -14 -2 -31 -1 -37 2 -10 -56
-13 -259 -13 -150 0 -260 4 -260 9 0 5 32 8 71 7 39 0 73 2 75 6 3 5 -29 8
-70 8 l-76 0 0 33 c0 18 -5 38 -11 44 -7 7 11 11 65 12 75 1 76 1 76 -24 0
-24 -3 -25 -54 -25 -34 0 -56 5 -59 13 -3 6 -6 0 -6 -15 -1 -28 -1 -28 68 -28
l69 0 -4 40 -5 40 183 1 c101 1 172 4 158 8 -18 4 -25 13 -25 31 0 14 -6 25
-12 24 -7 -1 -29 -2 -48 -2 -21 -1 -35 -7 -35 -14 0 -9 -20 -14 -58 -16 -43
-2 -53 0 -39 8 28 18 19 29 -23 28 -42 0 -48 -6 -27 -27 10 -10 -15 -11 -126
-9 -75 2 -137 1 -137 -2 0 -3 -14 -6 -30 -7 -25 -2 -30 2 -30 20 0 45 -12 67
-34 66 -17 -1 -17 -2 -3 -6z m597 -63 c0 -5 -16 -10 -35 -10 -19 0 -35 5 -35
10 0 6 16 10 35 10 19 0 35 -4 35 -10z m-620 -115 l0 -115 -75 0 -75 0 0 108
c0 60 3 112 7 115 3 4 37 7 75 7 l68 0 0 -115z m113 -108 c32 -4 32 -4 -5 -5
l-36 -2 -4 79 c-2 43 -1 87 2 97 3 11 6 -22 8 -73 l3 -92 32 -4z m24 131 c-3
-8 -6 -5 -6 6 -1 11 2 17 5 13 3 -3 4 -12 1 -19z m-1120 -45 c-11 -10 -26 8
-20 23 5 15 7 14 15 -1 6 -9 7 -19 5 -22z m370 26 c-14 -8 -22 -8 -30 0 -8 8
-3 11 19 11 25 -1 27 -2 11 -11z m88 2 c10 -17 -12 -21 -25 -6 -10 12 -10 15
3 15 9 0 18 -4 22 -9z m193 -15 c1 -16 -1 -18 -8 -6 -9 13 -14 7 -11 -12 0 -4
-39 -7 -88 -7 l-89 0 12 24 c10 22 16 23 96 23 80 -1 86 -2 88 -22z m120 17
c-16 -2 -40 -2 -55 0 -16 2 -3 4 27 4 30 0 43 -2 28 -4z m1289 1 c-3 -3 -12
-4 -19 -1 -8 3 -5 6 6 6 11 1 17 -2 13 -5z m-940 -81 c-2 -16 -4 -3 -4 27 0
30 2 43 4 28 2 -16 2 -40 0 -55z m1513 69 c0 -13 -12 -22 -22 -16 -10 6 -1 24
13 24 5 0 9 -4 9 -8z m-1810 -57 c0 -42 -4 -55 -15 -56 -8 0 -36 -1 -62 -1
l-48 -1 -3 51 -3 51 53 4 c29 2 59 4 66 5 8 1 12 -15 12 -53z m-385 35 c3 -6
-4 -10 -17 -10 -18 0 -20 2 -8 10 19 12 18 12 25 0z m1564 1 c9 -6 1 -9 -25
-9 -30 0 -34 2 -19 9 26 10 28 10 44 0z m-1353 -75 c-4 -16 0 -30 11 -41 14
-14 15 -20 4 -38 -12 -18 -11 -22 5 -34 17 -12 16 -13 -7 -13 -40 0 -69 -12
-69 -27 0 -11 -9 -14 -39 -9 -61 8 -81 -36 -28 -62 19 -9 14 -11 -29 -11 -38
-1 -56 -6 -69 -21 -18 -20 -17 -20 75 -20 l93 0 -7 -37 c-3 -21 -6 -53 -6 -70
l0 -33 -115 0 -115 0 0 -50 0 -50 98 0 98 0 -5 -42 c-5 -38 -6 -39 -9 -13 -5
39 -17 45 -77 40 -65 -6 -115 3 -115 21 0 8 -7 14 -15 14 -7 0 -19 8 -24 18
-6 10 -11 12 -11 4 0 -7 -11 -11 -29 -10 -20 1 -27 6 -23 16 4 12 1 12 -16 3
-18 -10 -22 -21 -22 -63 0 -95 -7 -44 -14 97 -4 76 -9 141 -11 144 -3 2 -5
-43 -6 -100 0 -57 -4 -113 -9 -124 -5 -12 -9 83 -9 235 -1 216 1 259 15 278
15 22 19 22 251 22 l235 0 -6 -24z m1012 12 c-3 -8 -27 -14 -61 -16 -46 -2
-57 0 -57 13 0 12 13 15 61 15 44 0 60 -3 57 -12z m262 -4 c0 -12 -10 -14 -52
-12 -74 4 -77 28 -4 28 44 0 56 -3 56 -16z m527 -18 c15 -33 15 -37 -5 -76
-18 -37 -18 -40 -2 -25 17 16 18 13 18 -80 -1 -53 -5 -98 -10 -102 -6 -3 6
-18 25 -34 44 -36 84 -117 66 -133 -9 -8 -10 -7 -6 7 4 9 2 17 -4 17 -7 0 -9
-10 -5 -25 5 -19 2 -25 -9 -25 -9 0 -14 -4 -11 -9 6 -10 -37 -31 -64 -31 -10
0 -21 6 -23 13 -3 6 -6 -6 -7 -28 l-2 -40 -9 49 c-15 91 -68 135 -138 116 -53
-14 -81 -58 -82 -131 -2 -50 -2 -51 -9 -19 -4 19 -8 27 -9 18 -2 -34 -38 -58
-85 -58 -38 0 -45 -3 -49 -22 -2 -13 -5 -4 -6 19 0 23 -5 45 -11 48 -5 3 -10
15 -10 26 0 11 4 18 9 15 4 -3 6 5 4 18 -14 71 63 186 141 208 53 15 52 14 31
38 -11 13 -32 20 -54 21 -20 0 -30 3 -23 6 6 2 12 14 12 24 0 11 -4 18 -9 14
-5 -3 -12 -1 -16 5 -3 5 -39 11 -78 12 -42 1 -56 3 -34 5 53 6 48 36 -8 44
-30 4 -36 7 -22 13 9 5 17 14 17 22 0 8 9 14 20 14 27 0 15 27 -16 34 -15 4
-24 14 -24 26 0 11 -4 20 -10 20 -5 0 -10 5 -10 10 0 6 90 10 250 10 l250 0
17 -34z m-747 14 c0 -5 -4 -10 -10 -10 -5 0 -10 5 -10 10 0 6 5 10 10 10 6 0
10 -4 10 -10z m60 0 c0 -5 -9 -10 -20 -10 -11 0 -20 5 -20 10 0 6 9 10 20 10
11 0 20 -4 20 -10z m40 0 c0 -5 -4 -10 -9 -10 -6 0 -13 5 -16 10 -3 6 1 10 9
10 9 0 16 -4 16 -10z m-2 -47 c-10 -2 -26 -2 -35 0 -10 3 -2 5 17 5 19 0 27
-2 18 -5z m95 0 c-13 -2 -35 -2 -50 0 -16 2 -5 4 22 4 28 0 40 -2 28 -4z
m-236 -39 c-3 -3 -12 -4 -19 -1 -8 3 -5 6 6 6 11 1 17 -2 13 -5z m-1777 -8 c0
-11 -19 -15 -25 -6 -3 5 1 10 9 10 9 0 16 -2 16 -4z m2877 -2 c-3 -3 -12 -4
-19 -1 -8 3 -5 6 6 6 11 1 17 -2 13 -5z m-20 -51 c-3 -10 -5 -4 -5 12 0 17 2
24 5 18 2 -7 2 -21 0 -30z m-2860 -15 c-3 -7 -5 -2 -5 12 0 14 2 19 5 13 2 -7
2 -19 0 -25z m1471 -5 c-16 -2 -40 -2 -55 0 -16 2 -3 4 27 4 30 0 43 -2 28 -4z
m189 1 c-3 -3 -12 -4 -19 -1 -8 3 -5 6 6 6 11 1 17 -2 13 -5z m-836 -22 c-7
-2 -18 1 -23 6 -8 8 -4 9 13 5 13 -4 18 -8 10 -11z m1206 12 c-3 -3 -12 -4
-19 -1 -8 3 -5 6 6 6 11 1 17 -2 13 -5z m814 -57 c-13 -13 -14 5 -3 43 l7 25
3 -29 c2 -16 -1 -33 -7 -39z m-2811 -95 c12 -78 20 -148 18 -154 -4 -10 -48
268 -48 296 0 33 11 -19 30 -142z m1055 138 c3 -5 1 -10 -4 -10 -6 0 -11 5
-11 10 0 6 2 10 4 10 3 0 8 -4 11 -10z m495 0 c0 -5 -2 -10 -4 -10 -3 0 -8 5
-11 10 -3 6 -1 10 4 10 6 0 11 -4 11 -10z m-1642 -45 c30 -25 59 -81 48 -92
-3 -3 -6 1 -6 11 0 9 -21 37 -46 61 -49 48 -46 62 4 20z m2979 -15 c-14 -16
-31 -46 -37 -65 -7 -20 -14 -35 -16 -32 -9 8 20 73 44 100 34 36 40 35 9 -3z
m-92 -126 c-18 -140 -24 -168 -32 -160 -3 3 5 69 17 146 13 77 25 138 27 136
2 -2 -3 -57 -12 -122z m-1913 -109 l-5 -205 109 0 109 0 -5 -72 -5 -73 -3 68
-3 67 -104 0 -105 0 -1 88 c-1 48 -4 77 -6 66 -3 -16 -13 -23 -37 -26 -26 -3
-32 0 -28 10 4 12 2 12 -17 0 -20 -11 -23 -11 -34 7 -7 11 -15 29 -19 40 -5
16 -6 14 -8 -10 -5 -57 -18 54 -19 153 l-1 92 94 0 93 0 -5 -205z m395 93 c-4
-62 -7 -138 -8 -168 -1 -30 -3 -47 -6 -37 -2 9 -9 17 -14 17 -6 0 -7 -4 -4
-10 8 -14 -78 0 -88 14 -5 6 -6 2 -2 -11 5 -18 2 -20 -15 -16 -17 5 -20 1 -20
-28 0 -49 37 -117 83 -150 22 -16 36 -29 31 -29 -21 0 -84 63 -103 103 -21 43
-29 117 -12 117 10 0 2 50 -11 67 -5 7 -12 64 -15 127 l-6 116 98 0 98 0 -6
-112z m544 38 l37 -69 18 34 c10 19 27 51 37 72 l19 37 102 -1 c55 -1 93 -3
84 -6 -10 -2 -18 -10 -18 -16 0 -7 -29 -61 -65 -121 -36 -60 -63 -111 -60
-114 3 -3 0 -11 -6 -18 -11 -13 7 -62 18 -50 3 3 0 12 -7 21 -7 9 -10 18 -6
22 3 3 6 1 6 -6 0 -7 5 -9 12 -5 6 4 8 3 5 -3 -4 -6 0 -14 9 -17 24 -9 7 -25
-22 -20 -17 3 -23 1 -19 -7 5 -7 -1 -7 -16 2 -26 14 -108 20 -124 9 -5 -4 -27
-7 -47 -7 -32 -1 -36 2 -33 21 3 20 3 20 -8 3 -32 -49 -34 -51 -32 -28 1 13 8
27 16 32 8 5 10 9 5 9 -5 0 -1 9 9 20 17 19 16 21 -14 68 -17 27 -31 51 -31
55 0 12 -64 107 -72 107 -5 0 -6 5 -3 10 3 6 -1 10 -9 10 -13 0 -16 -15 -17
-87 -1 -96 -15 -285 -17 -241 -2 35 -9 38 -60 28 -34 -6 -45 -4 -49 7 -5 12
-7 12 -14 1 -6 -9 -9 -4 -10 17 -2 30 -2 30 -9 -5 -5 -24 -8 1 -9 76 0 61 -4
139 -7 173 l-7 61 189 -2 189 -3 36 -69z m-2001 -6 c0 -5 -4 -10 -10 -10 -5 0
-10 5 -10 10 0 6 5 10 10 10 6 0 10 -4 10 -10z m3180 0 c0 -5 -7 -10 -15 -10
-8 0 -15 5 -15 10 0 6 7 10 15 10 8 0 15 -4 15 -10z m125 -39 c9 -15 -16 -60
-38 -67 -27 -9 -61 27 -52 55 5 17 14 21 45 21 21 0 41 -4 45 -9z m-3360 -12
c9 -13 -13 -66 -29 -72 -28 -11 -74 51 -54 71 15 15 75 16 83 1z m3655 -43 c0
-3 -4 -8 -10 -11 -5 -3 -10 -1 -10 4 0 6 5 11 10 11 6 0 10 -2 10 -4z m-779
-58 c-3 -21 -6 -26 -9 -15 -3 17 3 47 11 47 2 0 1 -15 -2 -32z m-2614 -20 c-3
-7 -5 -2 -5 12 0 14 2 19 5 13 2 -7 2 -19 0 -25z m-269 -31 c6 10 13 15 16 12
7 -6 -22 -49 -33 -49 -4 0 -13 12 -20 27 -12 27 -12 27 7 10 19 -18 21 -18 30
0z m2879 -19 c-3 -7 -5 -2 -5 12 0 14 2 19 5 13 2 -7 2 -19 0 -25z m126 -3
c-3 -9 -9 -39 -14 -68 -7 -49 -8 -47 -4 18 3 39 5 71 5 73 0 2 4 1 10 -3 5 -3
7 -12 3 -20z m-2726 -7 c-3 -8 -6 -5 -6 6 -1 11 2 17 5 13 3 -3 4 -12 1 -19z
m2600 -40 c-3 -7 -5 -2 -5 12 0 14 2 19 5 13 2 -7 2 -19 0 -25z m-2588 -28 c9
-40 8 -43 -5 -26 -8 11 -14 33 -14 50 0 39 7 31 19 -24z m2427 11 c-28 -54
-112 -62 -170 -16 -21 17 -25 24 -15 30 8 5 11 5 7 0 -12 -13 39 -46 75 -47
21 -1 49 8 69 20 18 12 29 22 25 22 -4 0 -2 6 5 14 20 21 21 11 4 -23z m-1136
-21 c16 0 35 7 43 15 8 8 17 11 21 8 3 -4 6 0 6 7 0 7 3 10 7 7 13 -14 -40
-57 -69 -57 -35 0 -71 17 -63 31 4 5 1 9 -5 9 -6 0 -8 5 -5 11 5 6 13 3 22
-10 9 -13 25 -21 43 -21z m-762 23 c-26 -2 -71 -2 -100 0 -29 2 -8 3 47 3 55
0 79 -1 53 -3z m1307 -25 l16 -33 -21 25 c-12 14 -23 20 -26 14 -3 -6 -12 -20
-20 -30 -14 -18 -14 -17 -3 6 12 26 29 50 35 50 2 0 11 -15 19 -32z m-185 16
c0 -15 -22 -44 -31 -39 -11 7 7 45 21 45 6 0 10 -3 10 -6z m927 -16 c-3 -8 -6
-5 -6 6 -1 11 2 17 5 13 3 -3 4 -12 1 -19z m-2622 -16 c-3 -3 -11 0 -18 7 -9
10 -8 11 6 5 10 -3 15 -9 12 -12z m1552 -29 c-9 -15 -30 -41 -48 -58 -32 -29
-32 -28 4 12 20 23 40 55 43 70 4 15 9 23 11 16 2 -6 -2 -24 -10 -40z m1052 5
c-16 -31 -60 -78 -84 -89 -11 -6 -3 4 18 22 21 17 45 45 53 60 8 16 17 29 20
29 2 0 -1 -10 -7 -22z m-952 -3 c0 -8 -4 -12 -9 -9 -5 3 -6 10 -3 15 9 13 12
11 12 -6z m504 -12 c13 -16 12 -17 -3 -4 -17 13 -22 21 -14 21 2 0 10 -8 17
-17z m-361 -33 c-11 -22 -23 -40 -25 -40 -3 0 4 18 15 40 11 22 23 40 25 40 3
0 -4 -18 -15 -40z m130 0 c6 -11 8 -20 6 -20 -3 0 -10 9 -16 20 -6 11 -8 20
-6 20 3 0 10 -9 16 -20z m1321 3 c-5 -10 -17 -27 -26 -38 -16 -19 -17 -19 -3
5 26 46 29 50 34 50 3 0 0 -8 -5 -17z m-1630 -36 c-10 -9 -11 -8 -5 6 3 10 9
15 12 12 3 -3 0 -11 -7 -18z m1319 -13 c0 -8 -5 -12 -10 -9 -6 4 -8 11 -5 16
9 14 15 11 15 -7z m-3060 -4 c0 -5 -4 -10 -10 -10 -5 0 -10 5 -10 10 0 6 5 10
10 10 6 0 10 -4 10 -10z m1565 -5 c-16 -8 -43 -14 -60 -13 -24 0 -21 2 14 9
24 5 46 11 49 14 3 3 10 5 16 4 6 0 -2 -7 -19 -14z m-126 -11 c10 -9 -45 -3
-59 6 -11 7 -5 8 20 4 19 -4 37 -8 39 -10z m444 4 c-2 -5 -40 -8 -84 -8 -43 0
-79 3 -79 8 0 4 38 7 84 7 46 0 82 -3 79 -7z m727 2 c-8 -5 -24 -9 -35 -9 -16
1 -16 2 5 9 35 11 48 11 30 0z m-1573 -6 c-3 -3 -12 -4 -19 -1 -8 3 -5 6 6 6
11 1 17 -2 13 -5z m131 -1 c-16 -2 -40 -2 -55 0 -16 2 -3 4 27 4 30 0 43 -2
28 -4z m1030 0 c-10 -2 -26 -2 -35 0 -10 3 -2 5 17 5 19 0 27 -2 18 -5z m239
1 c-3 -3 -12 -4 -19 -1 -8 3 -5 6 6 6 11 1 17 -2 13 -5z m91 -11 c-16 -2 -40
-2 -55 0 -16 2 -3 4 27 4 30 0 43 -2 28 -4z m-2005 -10 c-24 -2 -62 -2 -85 0
-24 2 -5 4 42 4 47 0 66 -2 43 -4z m2626 -14 c20 -7 31 -18 31 -31 0 -10 -4
-16 -10 -13 -5 3 -10 2 -10 -4 0 -12 -59 -11 -66 1 -8 12 4 58 15 58 4 0 22
-5 40 -11z m-3185 -44 c-3 -7 -16 -17 -29 -23 -18 -9 -26 -7 -39 7 -18 19 -22
46 -6 36 6 -3 10 -2 10 4 0 16 34 18 52 3 9 -8 14 -20 12 -27z m1224 -30 c28
-9 54 -20 57 -26 4 -5 -10 -2 -32 7 -21 9 -81 20 -138 24 l-100 7 81 1 c47 1
101 -4 132 -13z m249 9 c-3 -3 -12 -4 -19 -1 -8 3 -5 6 6 6 11 1 17 -2 13 -5z
m43 2 c0 -3 -4 -8 -10 -11 -5 -3 -10 -1 -10 4 0 6 5 11 10 11 6 0 10 -2 10 -4z
m265 -6 c-126 -4 -237 -3 -245 1 -8 5 95 8 230 7 l245 -1 -230 -7z m524 6 c-2
-2 -26 -6 -54 -9 -32 -4 -43 -3 -30 3 19 8 93 14 84 6z m134 -3 c-7 -2 -21 -2
-30 0 -10 3 -4 5 12 5 17 0 24 -2 18 -5z m-1436 -9 c-3 -3 -12 -4 -19 -1 -8 3
-5 6 6 6 11 1 17 -2 13 -5z m1168 -21 c-16 -8 -41 -25 -55 -37 -20 -17 -22
-18 -10 -2 17 22 70 56 85 56 6 -1 -3 -8 -20 -17z m-2720 -13 c3 -5 2 -10 -4
-10 -5 0 -13 5 -16 10 -3 6 -2 10 4 10 5 0 13 -4 16 -10z m45 6 c0 -2 -8 -10
-17 -17 -16 -13 -17 -12 -4 4 13 16 21 21 21 13z m4220 -20 c0 -3 -4 -8 -10
-11 -5 -3 -10 -1 -10 4 0 6 5 11 10 11 6 0 10 -2 10 -4z m-4270 -11 c0 -3 -6
-21 -14 -39 -18 -44 -37 -55 -34 -22 1 15 5 26 9 26 4 0 9 9 12 20 4 17 27 30
27 15z m65 -71 c17 -11 25 -26 25 -45 0 -29 15 -48 22 -27 5 14 79 -21 86 -40
2 -7 -12 -3 -32 9 -20 12 -42 19 -50 16 -17 -7 -89 41 -81 54 4 5 15 5 28 -2
18 -9 17 -6 -7 20 -33 34 -29 40 9 15z m909 -2 c2 -4 -3 -8 -12 -8 -9 0 -28
-3 -42 -7 -20 -5 -19 -4 5 8 35 17 42 18 49 7z m3201 -11 c-16 -10 -32 -16
-35 -14 -8 7 32 33 49 33 9 0 3 -8 -14 -19z m-4255 -10 c0 -6 -4 -13 -10 -16
-5 -3 -10 1 -10 9 0 9 5 16 10 16 6 0 10 -4 10 -9z m1180 -1 c0 -5 -4 -10 -10
-10 -5 0 -10 5 -10 10 0 6 5 10 10 10 6 0 10 -4 10 -10z m2247 -6 c-3 -3 -12
-4 -19 -1 -8 3 -5 6 6 6 11 1 17 -2 13 -5z m853 -14 c-14 -11 -29 -20 -35 -20
-5 0 4 9 20 20 38 25 48 25 15 0z m-3146 -1 c-3 -5 -19 -9 -35 -9 -39 0 -30
15 10 16 17 1 28 -3 25 -7z m656 -16 c13 -14 13 -14 -7 -4 -12 6 -37 11 -55
12 -27 0 -30 2 -13 9 24 10 55 3 75 -17z m1188 18 c-20 -4 -44 -13 -52 -21
-21 -16 -21 -6 0 14 9 9 31 16 52 15 l37 -1 -37 -7z m-2864 -30 c-2 -3 -12 3
-22 13 -16 17 -16 18 5 5 12 -7 20 -15 17 -18z m2219 12 c-40 -2 -107 -2 -150
0 -43 1 -10 3 72 3 83 0 118 -2 78 -3z m1830 -17 c-10 -13 -20 -20 -21 -15 -5
12 17 39 30 39 5 0 1 -11 -9 -24z m177 -7 c0 8 3 12 6 8 3 -3 3 -11 -1 -17 -9
-15 -35 7 -35 29 1 11 5 8 15 -9 8 -14 14 -19 15 -11z m-4322 -8 c-7 -12 -16
-21 -21 -21 -4 0 -6 4 -3 9 8 12 -22 23 -37 15 -9 -5 -9 -4 -1 5 9 10 17 10
33 1 17 -9 22 -8 27 5 4 9 8 14 11 11 2 -2 -2 -13 -9 -25z m3380 22 c-10 -2
-26 -2 -35 0 -10 3 -2 5 17 5 19 0 27 -2 18 -5z m-2318 -9 c0 -7 -66 -34 -85
-34 -8 0 -15 5 -15 11 0 5 4 7 10 4 5 -3 22 1 37 9 29 16 53 20 53 10z m2990
-14 c-6 -11 -13 -20 -16 -20 -2 0 0 9 6 20 6 11 13 20 16 20 2 0 0 -9 -6 -20z
m-1165 0 c-4 -6 -45 -9 -98 -8 l-92 2 95 6 c52 3 96 7 98 8 2 1 0 -2 -3 -8z
m1282 -36 c-21 -19 -42 -32 -48 -28 -6 3 2 12 18 21 15 8 35 21 43 29 8 8 17
14 20 14 3 0 -12 -16 -33 -36z m-4197 -18 c0 -6 -7 -3 -14 6 -7 10 -17 14 -21
10 -5 -4 -5 -1 -1 6 6 10 11 10 22 1 8 -6 14 -17 14 -23z m181 17 c8 -9 27
-24 42 -34 16 -9 25 -19 19 -22 -5 -4 -29 12 -53 33 -24 22 -39 40 -33 40 6 0
18 -7 25 -17z m3299 -24 c15 -28 5 -23 -15 7 -9 15 -12 23 -6 20 6 -4 16 -16
21 -27z m-3139 -29 c5 0 9 -4 9 -10 0 -11 -45 6 -78 31 -20 15 -20 18 -5 21 9
2 28 -7 42 -19 13 -13 28 -23 32 -23z m3765 35 c-11 -8 -25 -15 -30 -15 -6 1
0 7 14 15 32 19 40 18 16 0z m-3136 -5 c0 -5 -5 -10 -11 -10 -5 0 -7 5 -4 10
3 6 8 10 11 10 2 0 4 -4 4 -10z m-60 -9 c0 -6 -4 -13 -10 -16 -5 -3 -10 1 -10
9 0 9 5 16 10 16 6 0 10 -4 10 -9z m375 -13 c14 -6 25 -16 25 -21 0 -5 -7 -4
-16 3 -8 8 -32 17 -52 21 -30 5 -32 7 -10 8 15 0 39 -4 53 -11z m1730 2 c-3
-5 -34 -9 -68 -8 l-62 1 65 7 c36 4 66 7 68 8 2 1 0 -2 -3 -8z m545 -21 c15
-28 5 -23 -15 7 -9 15 -12 23 -6 20 6 -4 16 -16 21 -27z m-3109 0 c23 -11 39
-23 36 -25 -5 -6 -87 33 -87 41 0 9 10 6 51 -16z m3246 -11 c-3 -8 -6 -5 -6 6
-1 11 2 17 5 13 3 -3 4 -12 1 -19z m-3647 -8 c0 -5 -2 -10 -4 -10 -3 0 -8 5
-11 10 -3 6 -1 10 4 10 6 0 11 -4 11 -10z m3162 -20 c-18 -17 -40 -30 -50 -30
-10 0 1 12 28 30 57 37 63 37 22 0z m1068 26 c0 -2 -8 -10 -17 -17 -16 -13
-17 -12 -4 4 13 16 21 21 21 13z m-275 -16 c-3 -5 -12 -10 -18 -10 -7 0 -6 4
3 10 19 12 23 12 15 0z m-3205 -4 c0 -2 -19 -14 -42 -26 -24 -12 -38 -17 -33
-12 9 9 65 42 73 42 1 0 2 -2 2 -4z m57 -18 c-3 -8 -6 -5 -6 6 -1 11 2 17 5
13 3 -3 4 -12 1 -19z m2779 -4 c19 -15 19 -15 -1 -6 -11 5 -27 12 -35 15 -13
5 -13 6 1 6 8 1 24 -6 35 -15z m405 -4 c-13 -11 -31 -20 -40 -20 -9 1 -1 9 19
20 45 24 51 24 21 0z m-3641 0 c8 -5 11 -10 5 -10 -5 0 -17 5 -25 10 -8 5 -10
10 -5 10 6 0 17 -5 25 -10z m121 -8 c-7 -2 -18 1 -23 6 -8 8 -4 9 13 5 13 -4
18 -8 10 -11z m383 5 c-5 -13 -55 -47 -70 -47 -5 0 64 56 73 59 1 1 0 -5 -3
-12z m-846 -22 c15 -33 15 -35 -3 -35 -9 0 -19 -10 -24 -22 -8 -22 -9 -21 -25
16 -21 50 -20 55 4 49 11 -3 20 0 20 6 0 20 17 12 28 -14z m590 18 c-10 -2
-26 -2 -35 0 -10 3 -2 5 17 5 19 0 27 -2 18 -5z m662 3 c0 -2 -8 -10 -17 -17
-16 -13 -17 -12 -4 4 13 16 21 21 21 13z m-743 -12 c-3 -3 -12 -4 -19 -1 -8 3
-5 6 6 6 11 1 17 -2 13 -5z m3176 -11 c-7 -2 -19 -2 -25 0 -7 3 -2 5 12 5 14
0 19 -2 13 -5z m527 -7 c0 -2 -7 -19 -15 -37 -14 -34 -20 -23 -9 19 5 18 24
33 24 18z m-440 -20 c0 -2 -9 -6 -20 -9 -11 -3 -20 -1 -20 4 0 5 9 9 20 9 11
0 20 -2 20 -4z m-3207 -23 c-7 -2 -19 -2 -25 0 -7 3 -2 5 12 5 14 0 19 -2 13
-5z m72 -3 c-3 -5 -18 -9 -33 -9 l-27 1 30 8 c17 4 31 8 33 9 2 0 0 -3 -3 -9z
m605 0 c0 -5 -8 -10 -17 -10 -15 0 -16 2 -3 10 19 12 20 12 20 0z m-1220 -49
c-1 -13 -4 -12 -15 3 -8 11 -15 27 -15 35 1 13 4 12 15 -3 8 -11 15 -27 15
-35z m4226 12 c-11 -11 -19 6 -11 24 8 17 8 17 12 0 3 -10 2 -21 -1 -24z
m-4056 -155 c74 -99 138 -191 141 -203 4 -13 31 -65 62 -117 58 -98 107 -193
107 -204 0 -4 -9 1 -21 12 -65 59 -87 86 -93 109 -8 31 -55 105 -67 105 -19 0
-59 56 -55 76 8 30 -47 112 -79 120 -31 8 -55 50 -48 85 6 33 -32 110 -58 116
-33 9 -61 84 -31 83 4 -1 68 -82 142 -182z m2738 175 c-16 -2 -40 -2 -55 0
-16 2 -3 4 27 4 30 0 43 -2 28 -4z m1278 -29 c-4 -9 -9 -15 -11 -12 -3 3 -3
13 1 22 4 9 9 15 11 12 3 -3 3 -13 -1 -22z m9 -70 c19 7 19 -7 -1 -46 -11 -22
-12 -28 -2 -22 9 6 8 1 -3 -16 -26 -39 -43 -38 -36 1 5 29 4 31 -6 15 -29 -44
-49 -66 -57 -61 -5 3 -25 -11 -44 -30 -26 -25 -36 -45 -36 -66 0 -18 -4 -28
-10 -24 -6 4 -10 3 -9 -2 4 -24 -2 -43 -13 -37 -6 4 -8 3 -4 -4 3 -5 1 -12 -5
-14 -5 -2 -19 -23 -29 -46 -17 -39 -18 -43 -3 -49 19 -8 53 34 45 56 -4 12 -2
13 7 5 10 -10 9 -19 -4 -48 -10 -20 -18 -36 -20 -36 -1 0 -16 5 -33 11 l-30
10 25 62 c15 34 27 78 28 98 1 27 16 54 60 110 74 94 78 98 69 75 -5 -13 -4
-17 4 -12 8 5 10 2 6 -8 -3 -9 -1 -16 5 -16 6 0 11 12 11 28 0 15 7 38 16 50
9 13 13 26 9 30 -4 4 -10 2 -12 -4 -2 -6 -10 -20 -18 -30 -13 -17 -14 -18 -15
-1 0 9 5 17 10 17 6 0 10 6 10 13 0 7 5 18 12 25 9 9 17 5 35 -14 13 -15 30
-23 38 -20z m-1437 19 c-32 -2 -84 -2 -115 0 -32 2 -6 3 57 3 63 0 89 -1 58
-3z m-2694 -38 c3 -8 11 -14 17 -13 6 2 14 -4 16 -12 4 -13 3 -13 -7 0 -10 13
-11 12 -6 -3 3 -10 6 -26 7 -35 0 -14 2 -13 9 3 6 15 8 11 7 -17 -1 -21 -3
-38 -4 -38 -15 0 -33 16 -33 31 0 21 -11 24 -27 8 -7 -7 -17 2 -32 31 -26 51
-26 52 4 44 15 -4 25 -2 25 5 0 16 17 13 24 -4z m813 -1 c-3 -3 -12 -4 -19 -1
-8 3 -5 6 6 6 11 1 17 -2 13 -5z m2570 0 c-3 -3 -12 -4 -19 -1 -8 3 -5 6 6 6
11 1 17 -2 13 -5z m-37 -8 c0 -2 -7 -7 -16 -10 -8 -3 -12 -2 -9 4 6 10 25 14
25 6z m-2110 -78 c0 -6 -3 -9 -6 -5 -3 3 -29 -3 -56 -14 -28 -11 -52 -18 -55
-16 -3 4 94 45 110 46 4 1 7 -4 7 -11z m1640 -3 c-7 -8 -20 -15 -29 -15 -11 0
-8 5 9 14 33 19 35 19 20 1z m-1267 -12 c-7 -2 -19 -2 -25 0 -7 3 -2 5 12 5
14 0 19 -2 13 -5z m2397 -58 c0 -8 7 -15 15 -15 18 0 18 -4 5 -52 -14 -47 -60
-65 -60 -22 0 17 17 19 23 2 2 -7 8 -10 12 -6 13 12 -4 38 -25 38 -24 0 -24 3
-5 40 17 32 35 40 35 15z m-3250 -25 c0 -5 -5 -10 -11 -10 -5 0 -7 5 -4 10 3
6 8 10 11 10 2 0 4 -4 4 -10z m2675 0 c3 -5 1 -10 -4 -10 -6 0 -11 5 -11 10 0
6 2 10 4 10 3 0 8 -4 11 -10z m-375 -45 c-26 -32 -117 -55 -208 -54 l-87 2
100 7 c77 6 112 13 150 32 28 14 52 26 54 27 2 0 -2 -6 -9 -14z m-1597 -20
c45 -21 71 -26 143 -26 49 0 98 3 109 6 l20 7 -20 -13 c-12 -8 -55 -13 -110
-13 -77 -1 -98 3 -147 26 -32 15 -58 29 -58 32 0 9 4 8 63 -19z m322 5 c-3 -5
-12 -10 -18 -10 -7 0 -6 4 3 10 19 12 23 12 15 0z m455 0 c0 -6 -44 -10 -112
-10 -77 0 -108 3 -98 10 20 13 210 13 210 0z m-1492 -57 c-3 -32 -6 -37 -33
-40 -23 -3 -26 -1 -15 7 13 8 12 10 -4 10 -17 0 -16 4 9 30 38 39 47 38 43 -7z
m2747 13 c15 -16 19 -29 14 -38 -5 -7 -9 -8 -9 -3 0 6 -4 4 -9 -4 -7 -11 -13
-9 -30 8 -25 25 -28 61 -5 61 9 0 27 -11 39 -24z m482 1 c9 -6 10 -15 2 -28
-9 -19 -11 -19 -33 -2 -18 14 -22 22 -14 36 9 17 18 16 45 -6z m-3817 -17 c0
-5 -2 -10 -4 -10 -3 0 -8 5 -11 10 -3 6 -1 10 4 10 6 0 11 -4 11 -10z m116
-121 c14 -22 23 -43 20 -47 -3 -3 -1 -11 5 -19 6 -7 9 -13 5 -13 -3 0 -1 -12
4 -27 l10 -28 -20 24 c-12 14 -17 27 -11 30 5 3 0 17 -11 30 -14 19 -21 22
-27 12 -6 -9 -15 -4 -34 21 -23 29 -25 33 -9 36 9 2 21 8 27 13 13 13 12 13
41 -32z m3578 -39 c21 0 20 -6 -5 -46 -22 -35 -39 -44 -39 -20 0 8 -6 16 -14
18 -12 2 -12 9 2 42 13 34 17 37 27 22 7 -9 20 -16 29 -16z m-2024 -99 c0 -5
-9 -7 -20 -4 -11 3 -20 7 -20 9 0 2 9 4 20 4 11 0 20 -4 20 -9z m573 2 c-7 -2
-19 -2 -25 0 -7 3 -2 5 12 5 14 0 19 -2 13 -5z m-1981 -75 c16 -16 15 -17 -12
-13 -17 2 -32 -1 -35 -6 -10 -15 -20 -10 -38 20 -21 35 -21 42 -4 35 8 -3 20
3 28 12 12 15 15 14 29 -7 8 -13 23 -31 32 -41z m3199 1 c38 -19 40 -22 25
-38 -21 -24 -20 -37 2 -20 15 12 16 12 5 -1 -8 -11 -24 -14 -52 -12 l-41 4 0
44 c0 24 5 44 10 44 6 0 29 -9 51 -21z m-1891 -13 c0 -2 -7 -7 -16 -10 -8 -3
-12 -2 -9 4 6 10 25 14 25 6z m-1172 -38 c-3 -31 -5 -33 -38 -30 -33 4 -70 26
-70 43 0 4 19 10 43 12 23 2 48 4 55 5 9 1 12 -8 10 -30z m-128 12 c0 -5 -2
-10 -4 -10 -3 0 -8 5 -11 10 -3 6 -1 10 4 10 6 0 11 -4 11 -10z m2714 -85 l16
-25 -1105 0 c-608 0 -1105 3 -1105 7 0 4 9 16 19 27 20 21 20 21 1089 18
l1070 -2 16 -25z m-2595 -29 c0 -11 -4 -29 -8 -40 -6 -17 -9 -16 -39 9 -36 31
-41 46 -12 38 12 -3 22 1 26 10 8 22 34 9 33 -17z m3088 20 c-3 -8 -1 -16 5
-18 6 -2 -8 -11 -31 -20 -50 -20 -58 -2 -13 31 32 24 46 27 39 7z m-2811 -25
c-7 -11 -106 -34 -114 -27 -4 5 83 34 106 35 7 1 11 -3 8 -8z m2542 -6 c12
-12 -5 -12 -43 1 l-40 14 39 -5 c21 -2 41 -7 44 -10z"/>
<path d="M2077 3923 c-4 -3 -7 -24 -7 -45 0 -21 -4 -38 -10 -38 -6 0 -10 -27
-10 -60 l0 -60 60 0 60 0 0 105 0 105 -43 0 c-24 0 -47 -3 -50 -7z"/>
<path d="M1796 3822 c-3 -6 -1 -14 5 -17 15 -10 25 3 12 16 -7 7 -13 7 -17 1z"/>
<path d="M1458 3718 c-35 -9 -61 -38 -34 -38 8 0 16 -9 19 -20 3 -11 10 -20
16 -20 14 0 14 17 1 25 -19 12 -10 33 20 44 17 5 30 12 30 15 0 7 -5 7 -52 -6z"/>
<path d="M1556 3716 c4 -11 0 -13 -15 -9 -28 7 -37 -19 -21 -57 7 -17 15 -30
19 -30 10 0 31 23 31 34 0 6 -5 5 -12 -2 -19 -19 -33 -14 -15 6 10 10 17 25
17 33 1 8 8 1 16 -14 9 -16 18 -26 21 -23 7 7 -28 76 -39 76 -4 0 -5 -6 -2
-14z m-8 -28 c-6 -18 -28 -21 -28 -4 0 9 7 16 16 16 9 0 14 -5 12 -12z"/>
<path d="M1612 3673 c19 -31 61 -53 75 -39 4 3 -3 6 -15 6 -25 0 -58 40 -41
51 6 3 0 8 -14 11 l-24 5 19 -34z"/>
<path d="M1470 3672 c0 -4 5 -13 11 -19 8 -8 4 -15 -12 -27 -26 -18 -9 -22 21
-6 17 9 18 14 8 35 -11 24 -28 34 -28 17z"/>
<path d="M1410 3654 c0 -8 5 -12 10 -9 6 3 10 10 10 16 0 5 -4 9 -10 9 -5 0
-10 -7 -10 -16z"/>
<path d="M1555 3543 c-27 -32 -57 -66 -68 -75 -19 -18 -18 -18 21 -18 40 0 60
18 41 37 -5 5 4 24 23 47 25 31 36 37 59 34 23 -4 29 -1 29 14 0 13 -8 18 -29
18 -23 0 -38 -12 -76 -57z"/>
<path d="M1398 3453 c7 -3 16 -2 19 1 4 3 -2 6 -13 5 -11 0 -14 -3 -6 -6z"/>
<path d="M1413 3433 c8 -7 77 -6 85 2 3 3 -16 5 -43 5 -27 0 -45 -3 -42 -7z"/>
<path d="M1518 3433 c7 -3 16 -2 19 1 4 3 -2 6 -13 5 -11 0 -14 -3 -6 -6z"/>
<path d="M3584 3712 c-15 -10 -39 -57 -25 -47 6 3 19 -3 29 -15 15 -19 19 -19
37 -6 11 8 16 18 12 22 -4 5 -12 2 -16 -5 -5 -7 -14 -10 -20 -7 -15 9 -14 39
1 54 13 13 0 16 -18 4z"/>
<path d="M3510 3650 c0 -5 4 -10 9 -10 6 0 13 5 16 10 3 6 -1 10 -9 10 -9 0
-16 -4 -16 -10z"/>
<path d="M3361 3573 c0 -16 3 -22 6 -15 5 13 63 17 63 4 0 -5 8 -17 19 -28 10
-11 24 -31 31 -45 12 -22 10 -22 -20 6 l-33 30 23 -33 c16 -22 29 -30 41 -27
10 3 20 1 24 -5 3 -5 13 -10 21 -10 8 0 -12 31 -48 75 -54 64 -68 74 -95 75
-30 0 -33 -3 -32 -27z"/>
<path d="M3675 3369 c22 -25 41 -44 43 -43 8 5 -31 54 -56 70 -22 14 -19 8 13
-27z"/>
<path d="M1888 3433 c12 -2 30 -2 40 0 9 3 -1 5 -23 4 -22 0 -30 -2 -17 -4z"/>
<path d="M1958 3433 c6 -2 18 -2 25 0 6 3 1 5 -13 5 -14 0 -19 -2 -12 -5z"/>
<path d="M2238 3433 c7 -3 16 -2 19 1 4 3 -2 6 -13 5 -11 0 -14 -3 -6 -6z"/>
<path d="M3188 3433 c7 -3 16 -2 19 1 4 3 -2 6 -13 5 -11 0 -14 -3 -6 -6z"/>
<path d="M2621 3144 c0 -11 3 -14 6 -6 3 7 2 16 -1 19 -3 4 -6 -2 -5 -13z"/>
<path d="M2460 3960 l-55 -7 58 -1 c32 -1 57 2 57 8 0 6 -1 9 -2 8 -2 -1 -28
-4 -58 -8z"/>
<path d="M2720 3853 c0 -21 5 -23 55 -24 30 -1 61 -2 68 -3 6 -1 13 9 15 21 3
20 -2 22 -67 25 -68 3 -71 2 -71 -19z m130 -2 c0 -4 -27 -7 -60 -7 -33 -1 -57
3 -54 8 6 10 114 9 114 -1z"/>
<path d="M2588 3863 c-47 -3 -58 -7 -58 -21 0 -15 9 -16 62 -13 57 3 77 12 78
34 0 4 -6 6 -12 5 -7 -1 -39 -3 -70 -5z"/>
<path d="M2533 3802 c8 -12 167 -15 167 -2 0 6 -33 10 -86 10 -47 0 -83 -3
-81 -8z"/>
<path d="M2720 3800 c0 -6 30 -10 70 -10 40 0 70 4 70 10 0 6 -30 10 -70 10
-40 0 -70 -4 -70 -10z"/>
<path d="M4352 3190 c0 -14 2 -19 5 -12 2 6 2 18 0 25 -3 6 -5 1 -5 -13z"/>
<path d="M728 3174 c6 -11 7 -26 2 -34 -6 -10 -9 -7 -13 11 -4 21 -4 22 -6 3
0 -12 7 -28 17 -35 9 -7 14 -9 10 -5 -4 5 0 15 10 22 16 12 15 14 -7 36 -21
21 -22 21 -13 2z"/>
</g>
</svg>
